<svg width="156" height="97" viewBox="0 0 156 97" fill="none" xmlns="http://www.w3.org/2000/svg">
<path d="M105.696 22.5371H52.6625C47.7 22.5371 42.0323 23.0308 38.8361 26.8269C36.1871 29.9732 36 34.2531 36 38.366V62.495C36 65.4435 36.0955 68.4809 37.3519 71.1482C37.9379 72.3922 38.6568 73.377 39.5861 74.1974C42.6952 76.9424 47.245 77 51.3925 77H119.482C123.891 77 128.506 76.8272 131.435 73.531C134.165 70.459 134.595 65.7366 134.595 61.6271V46.0169C134.595 45.4348 134.123 44.963 133.541 44.963C132.959 44.963 132.487 45.4348 132.487 46.0169V56.7596C132.487 64.0255 131.778 74.2818 124.525 74.7116H50.6369C46.9983 74.7116 43.0265 74.5758 40.5619 71.8989C38.0547 69.1757 37.9114 65.0328 37.9852 61.332L38.477 36.6599C38.5426 33.3702 38.6394 29.9946 40.9421 27.6443C43.6047 24.9265 48.0265 24.5967 51.8312 24.5967H105.696C106.265 24.5967 106.726 24.1356 106.726 23.5669C106.726 22.9982 106.265 22.5371 105.696 22.5371Z" fill="#00FF23"/>
<path d="M118.436 28.9445C112.197 27.8713 110.136 25.4161 109.064 19.0361C108.943 18.3201 109.621 17.7379 110.317 17.9456L114.937 19.325C116.455 19.7781 117.893 20.62 118.655 22.0086C119.896 24.2721 119.572 26.1043 118.436 28.9445Z" fill="#00FF23"/>
<path d="M133.892 13.0484C134.595 12.3577 118.525 19.1107 121.714 30.0887C124.026 30.2881 125.961 30.2916 127.685 29.9322C132.676 28.8919 132.674 22.1375 133.013 17.0504C133.152 14.9735 133.579 13.3566 133.892 13.0484Z" fill="#00FF23"/>
<path d="M134.428 38.196C133.574 31.097 130.213 29.228 122.885 32.8347C126.438 41.1836 129.393 42.8221 136 41.5305C135.096 40.6475 134.579 39.4504 134.428 38.196Z" fill="#00FF23"/>
<path d="M66.432 36.366H68.952C68.924 37.1967 68.91 37.808 68.91 38.2V40.384C68.07 40.9533 67.09 41.238 65.97 41.238C64.598 41.238 63.4967 40.8273 62.666 40.006C61.8353 39.1847 61.42 38.0927 61.42 36.73C61.42 35.2367 61.9053 33.9813 62.876 32.964C63.856 31.9373 65.088 31.424 66.572 31.424C67.188 31.424 67.7993 31.5267 68.406 31.732V34.154C67.7713 33.2393 67.0807 32.782 66.334 32.782C65.6433 32.782 65.088 33.118 64.668 33.79C64.2573 34.462 64.052 35.3627 64.052 36.492C64.052 37.8453 64.3227 38.8253 64.864 39.432C65.1533 39.7587 65.5547 39.922 66.068 39.922C66.1987 39.922 66.3433 39.894 66.502 39.838V38.648L66.488 37.71C66.4787 37.1967 66.46 36.7487 66.432 36.366ZM72.3866 41H69.8526C69.8806 40.524 69.8946 39.5067 69.8946 37.948V36.38C69.8946 33.748 69.8759 32.1753 69.8386 31.662H72.3026C73.1613 31.662 73.6933 31.6667 73.8986 31.676C74.5426 31.7227 75.0559 31.8393 75.4386 32.026C76.3626 32.474 76.8246 33.1973 76.8246 34.196C76.8246 35.3347 76.2086 36.114 74.9766 36.534L75.3126 37.332C75.3593 37.4347 75.8446 38.4893 76.7686 40.496C76.8153 40.5987 76.8899 40.7667 76.9926 41H74.1506C73.9359 40.3 73.5206 39.2033 72.9046 37.71L72.5406 36.828H72.3446V37.99C72.3446 39.5487 72.3586 40.552 72.3866 41ZM72.3446 35.554H72.6246C73.1379 35.554 73.5066 35.4747 73.7306 35.316C74.0666 35.0733 74.2346 34.7093 74.2346 34.224C74.2346 33.384 73.6979 32.964 72.6246 32.964H72.3446V35.554ZM83.7921 39.53L83.7641 41H77.5901C77.6461 39.9173 77.6741 38.5873 77.6741 37.01V34.812C77.6741 33.5613 77.6461 32.5113 77.5901 31.662H83.6941C83.7034 31.9233 83.7221 32.4273 83.7501 33.174C83.0688 33.0807 82.1354 33.034 80.9501 33.034H80.1241V35.526H80.7681C81.4214 35.526 82.0468 35.5073 82.6441 35.47V36.968C81.9348 36.8933 81.3048 36.856 80.7541 36.856H80.1241V39.656H80.9781C82.2101 39.656 83.1481 39.614 83.7921 39.53ZM90.6149 39.53L90.5869 41H84.4129C84.4689 39.9173 84.4969 38.5873 84.4969 37.01V34.812C84.4969 33.5613 84.4689 32.5113 84.4129 31.662H90.5169C90.5263 31.9233 90.5449 32.4273 90.5729 33.174C89.8916 33.0807 88.9583 33.034 87.7729 33.034H86.9469V35.526H87.5909C88.2443 35.526 88.8696 35.5073 89.4669 35.47V36.968C88.7576 36.8933 88.1276 36.856 87.5769 36.856H86.9469V39.656H87.8009C89.0329 39.656 89.9709 39.614 90.6149 39.53ZM93.0277 41H91.2497C91.2964 40.2907 91.3197 39.2033 91.3197 37.738V35.876C91.3197 33.72 91.2964 32.3153 91.2497 31.662H93.5317L96.4857 36.856V34.63C96.4857 33.3607 96.4624 32.3713 96.4157 31.662H98.2217C98.1564 33.0993 98.1237 34.1307 98.1237 34.756V37.444C98.1237 39.3947 98.1377 40.58 98.1657 41H96.1497L92.9717 35.134V38.48C92.9717 39.6373 92.9904 40.4773 93.0277 41ZM99.78 35.428L99.5 34.994C100.097 34.5367 100.387 34.0233 100.368 33.454C100.321 33.4633 100.261 33.468 100.186 33.468C99.906 33.468 99.6727 33.3793 99.486 33.202C99.3087 33.0247 99.22 32.8007 99.22 32.53C99.22 32.2407 99.3273 31.9933 99.542 31.788C99.766 31.5827 100.037 31.48 100.354 31.48C100.727 31.48 101.031 31.6107 101.264 31.872C101.497 32.124 101.614 32.4507 101.614 32.852C101.614 33.3467 101.441 33.8367 101.096 34.322C100.76 34.798 100.321 35.1667 99.78 35.428ZM102.191 40.608V38.312C103.059 39.3387 104.025 39.852 105.089 39.852C105.435 39.852 105.724 39.754 105.957 39.558C106.191 39.3527 106.307 39.1007 106.307 38.802C106.307 38.5127 106.205 38.2653 105.999 38.06C105.794 37.8453 105.411 37.584 104.851 37.276C104.011 36.8187 103.419 36.4453 103.073 36.156C102.56 35.7267 102.303 35.1527 102.303 34.434C102.303 33.5287 102.663 32.8007 103.381 32.25C104.1 31.6993 105.057 31.424 106.251 31.424C106.877 31.424 107.479 31.5033 108.057 31.662V33.776C107.385 33.16 106.653 32.852 105.859 32.852C105.486 32.852 105.192 32.936 104.977 33.104C104.763 33.272 104.655 33.5007 104.655 33.79C104.655 34.0327 104.735 34.2287 104.893 34.378C105.052 34.518 105.453 34.756 106.097 35.092C106.928 35.5213 107.516 35.8853 107.861 36.184C108.44 36.6787 108.729 37.3507 108.729 38.2C108.729 39.1053 108.384 39.838 107.693 40.398C107.012 40.958 106.121 41.238 105.019 41.238C103.955 41.238 103.013 41.028 102.191 40.608Z" fill="white"/>
<path d="M59.21 43.326H68.56V45.812C67.196 45.6213 65.7367 45.526 64.182 45.526H63.258V49.574H63.808C65.3627 49.574 66.492 49.53 67.196 49.442V51.928C66.1253 51.7373 65.0107 51.642 63.852 51.642H63.258V52.874C63.258 55.25 63.3167 56.9587 63.434 58H59.21C59.3273 56.812 59.386 54.7953 59.386 51.95V48.672C59.386 46.3547 59.3273 44.5727 59.21 43.326ZM72.7892 58H68.8072C68.8512 57.252 68.8732 55.6533 68.8732 53.204V50.74C68.8732 46.604 68.8438 44.1327 68.7852 43.326H72.6572C74.0065 43.326 74.8425 43.3333 75.1652 43.348C76.1772 43.4213 76.9838 43.6047 77.5852 43.898C79.0372 44.602 79.7632 45.7387 79.7632 47.308C79.7632 49.0973 78.7952 50.322 76.8592 50.982L77.3872 52.236C77.4605 52.3973 78.2232 54.0547 79.6752 57.208C79.7485 57.3693 79.8658 57.6333 80.0272 58H75.5612C75.2238 56.9 74.5712 55.1767 73.6032 52.83L73.0312 51.444H72.7232V53.27C72.7232 55.7193 72.7452 57.296 72.7892 58ZM72.7232 49.442H73.1632C73.9698 49.442 74.5492 49.3173 74.9012 49.068C75.4292 48.6867 75.6932 48.1147 75.6932 47.352C75.6932 46.032 74.8498 45.372 73.1632 45.372H72.7232V49.442ZM90.2721 55.69L90.2281 58H80.5261C80.6141 56.2987 80.6581 54.2087 80.6581 51.73V48.276C80.6581 46.3107 80.6141 44.6607 80.5261 43.326H90.1181C90.1328 43.7367 90.1621 44.5287 90.2061 45.702C89.1354 45.5553 87.6688 45.482 85.8061 45.482H84.5081V49.398H85.5201C86.5468 49.398 87.5294 49.3687 88.4681 49.31V51.664C87.3534 51.5467 86.3634 51.488 85.4981 51.488H84.5081V55.888H85.8501C87.7861 55.888 89.2601 55.822 90.2721 55.69ZM90.1901 57.384V53.776C91.5541 55.3893 93.0721 56.196 94.7441 56.196C95.2868 56.196 95.7415 56.042 96.1081 55.734C96.4748 55.4113 96.6581 55.0153 96.6581 54.546C96.6581 54.0913 96.4968 53.7027 96.1741 53.38C95.8515 53.0427 95.2501 52.632 94.3701 52.148C93.0501 51.4293 92.1188 50.8427 91.5761 50.388C90.7695 49.7133 90.3661 48.8113 90.3661 47.682C90.3661 46.2593 90.9308 45.1153 92.0601 44.25C93.1895 43.3847 94.6928 42.952 96.5701 42.952C97.5528 42.952 98.4988 43.0767 99.4081 43.326V46.648C98.3521 45.68 97.2008 45.196 95.9541 45.196C95.3675 45.196 94.9055 45.328 94.5681 45.592C94.2308 45.856 94.0621 46.2153 94.0621 46.67C94.0621 47.0513 94.1868 47.3593 94.4361 47.594C94.6855 47.814 95.3161 48.188 96.3281 48.716C97.6335 49.3907 98.5575 49.9627 99.1001 50.432C100.009 51.2093 100.464 52.2653 100.464 53.6C100.464 55.0227 99.9215 56.174 98.8361 57.054C97.7655 57.934 96.3648 58.374 94.6341 58.374C92.9621 58.374 91.4808 58.044 90.1901 57.384ZM101.004 43.326H105.074C105.016 44.6167 104.986 45.9147 104.986 47.22V49.244H108.088V47.22C108.088 45.9147 108.059 44.6167 108 43.326H112.07C112.012 44.1767 111.982 46.1053 111.982 49.112V52.522C111.982 54.8833 112.012 56.7093 112.07 58H107.978C108.052 56.7827 108.088 55.4333 108.088 53.952V51.444H104.986V53.952C104.986 55.4333 105.023 56.7827 105.096 58H101.004C101.063 56.6947 101.092 54.8687 101.092 52.522V49.112C101.092 46.1053 101.063 44.1767 101.004 43.326Z" fill="white"/>
<path d="M63.372 60.6L65.388 65.052L67.404 60.6H70.176V69H67.404V65.928L66.096 69H64.68L63.372 65.928V69H60.6V60.6H63.372ZM76.5892 60.6L79.8293 69H77.0452L76.6732 67.716H74.5372L74.1652 69H71.3812L74.6212 60.6H76.5892ZM75.1852 65.448H76.0252L75.6052 64.008L75.1852 65.448ZM84.7928 60.6C85.3848 60.6 85.8848 60.708 86.2928 60.924C86.7088 61.14 87.0368 61.42 87.2768 61.764C87.5248 62.108 87.6848 62.488 87.7568 62.904C87.8288 63.32 87.8128 63.728 87.7088 64.128C87.6048 64.52 87.4128 64.884 87.1328 65.22C86.8608 65.556 86.5008 65.808 86.0528 65.976L88.1168 69H85.0928L83.7968 66.396V69H81.0248V60.6H84.7928ZM84.1568 64.236C84.4368 64.236 84.6488 64.152 84.7928 63.984C84.9368 63.808 85.0088 63.62 85.0088 63.42C85.0168 63.212 84.9488 63.028 84.8048 62.868C84.6608 62.7 84.4448 62.616 84.1568 62.616H83.7968V64.236H84.1568ZM92.0933 60.6V63.276L93.6773 60.6H96.7373L94.1213 64.308L96.7253 69H93.5813L92.5613 66.528L92.0933 67.2V69H89.3213V60.6H92.0933ZM97.9341 60.6H103.526V62.868H100.706V63.696H103.118V65.964H100.706V66.816L103.526 66.684V69H97.9341V60.6ZM110.974 60.6V62.868H109.174V69H106.402V62.868H104.602V60.6H110.974Z" fill="#00FF10"/>
</svg>
